#format: frame checksums
#version: 2
#hash: MD5
#tb 0: 1001/30000
#media_type 0: video
#codec_id 0: rawvideo
#dimensions 0: 200x198
#sar 0: 1/1
#stream#, dts,        pts, duration,     size, hash
0,          0,          0,        1,    59400, d4b3578d800c747bcabaa484a140ffb0
0,          1,          1,        1,    59400, a40f6f8c384c5dc3d5546d960bb6d9e5
0,          2,          2,        1,    59400, e270ae8754d9906dd88b1c7d05280801
0,          3,          3,        1,    59400, bde7fde5012840c5e188f3b29f4f0003
0,          4,          4,        1,    59400, 8f8510c1130615b64fb8469af66ff678
0,          5,          5,        1,    59400, 79b9d4e0c64f82a6e9540394222a593d
0,          6,          6,        1,    59400, 34852ac9ca5c6bfa51736296784343c7
0,          7,          7,        1,    59400, b055218509dbed644113642f8f0ac8a8
0,          8,          8,        1,    59400, 1628866b436f1c4b892474025226e545
0,          9,          9,        1,    59400, 3fdec760c04e30c90e74afb38dbf757c
